<svg xmlns="http://www.w3.org/2000/svg" viewBox="0 0 363 324" width="363" height="324">
  <path d="M 202 91 L 200 92 L 198 93 L 196 95 L 194 96 L 189 98 L 186 99 L 186 101 L 188 101 L 194 99 L 200 96 L 202 94 L 203 94 L 204 91 Z M 244 0 L 239 2 L 236 4 L 227 13 L 223 19 L 196 50 L 188 61 L 182 67 L 182 68 L 177 73 L 169 73 L 163 74 L 159 75 L 147 79 L 142 81 L 130 87 L 118 92 L 100 98 L 95 100 L 90 103 L 85 104 L 79 107 L 69 112 L 59 122 L 57 125 L 55 128 L 51 136 L 49 143 L 44 152 L 43 157 L 37 169 L 35 174 L 34 179 L 31 184 L 30 189 L 24 201 L 23 206 L 21 208 L 18 215 L 16 220 L 15 226 L 15 228 L 16 229 L 16 232 L 17 234 L 18 236 L 22 240 L 24 241 L 26 242 L 32 243 L 34 245 L 33 247 L 28 252 L 28 253 L 23 258 L 19 263 L 18 265 L 17 267 L 16 270 L 16 273 L 13 278 L 11 284 L 9 292 L 8 295 L 6 297 L 6 300 L 0 315 L 0 318 L 1 320 L 3 322 L 5 323 L 7 323 L 9 322 L 11 321 L 16 318 L 21 314 L 26 312 L 31 309 L 39 303 L 44 301 L 49 297 L 54 295 L 56 293 L 57 293 L 58 292 L 66 283 L 72 276 L 76 270 L 81 265 L 82 267 L 83 268 L 85 273 L 92 288 L 98 294 L 100 295 L 102 296 L 107 297 L 112 297 L 117 296 L 120 295 L 122 294 L 128 287 L 130 286 L 132 287 L 134 289 L 140 292 L 146 293 L 151 293 L 156 292 L 164 288 L 167 286 L 171 281 L 173 278 L 176 272 L 177 269 L 178 264 L 179 255 L 183 255 L 184 256 L 189 256 L 193 257 L 197 258 L 230 270 L 242 273 L 247 274 L 256 275 L 269 275 L 276 274 L 281 273 L 286 272 L 290 271 L 293 270 L 301 267 L 306 265 L 311 262 L 316 260 L 325 257 L 334 256 L 345 256 L 357 255 L 359 254 L 361 252 L 361 248 L 361 246 L 358 243 L 349 243 L 348 244 L 338 244 L 328 245 L 322 246 L 318 247 L 314 248 L 311 249 L 306 251 L 297 256 L 294 256 L 288 259 L 282 261 L 278 262 L 271 263 L 252 263 L 246 262 L 241 261 L 234 259 L 231 257 L 216 252 L 213 252 L 205 248 L 201 247 L 193 246 L 189 244 L 182 243 L 169 242 L 167 242 L 156 243 L 147 244 L 140 245 L 120 249 L 113 250 L 106 250 L 99 249 L 95 248 L 89 245 L 83 239 L 82 236 L 82 228 L 83 226 L 92 217 L 98 214 L 101 213 L 104 212 L 109 211 L 114 210 L 124 209 L 142 209 L 151 208 L 158 207 L 166 206 L 171 204 L 176 204 L 184 201 L 190 198 L 195 193 L 198 189 L 200 184 L 201 177 L 200 170 L 199 167 L 198 165 L 195 161 L 191 157 L 188 155 L 185 153 L 183 152 L 180 152 L 179 151 L 177 150 L 178 148 L 183 143 L 183 142 L 188 136 L 199 124 L 212 108 L 212 107 L 215 104 L 217 104 L 222 108 L 235 117 L 246 123 L 252 127 L 261 134 L 266 136 L 272 140 L 283 148 L 295 154 L 302 157 L 305 158 L 308 159 L 312 160 L 319 161 L 327 162 L 338 162 L 353 161 L 357 160 L 359 159 L 360 152 L 359 150 L 357 149 L 343 149 L 323 150 L 318 149 L 313 148 L 309 147 L 299 143 L 290 138 L 277 130 L 274 127 L 271 126 L 264 120 L 259 118 L 253 114 L 233 101 L 230 98 L 227 97 L 224 93 L 227 89 L 236 78 L 242 72 L 246 66 L 263 47 L 267 42 L 269 39 L 272 35 L 272 33 L 274 31 L 275 27 L 275 20 L 274 16 L 273 13 L 272 11 L 268 6 L 267 5 L 266 5 L 264 3 L 262 2 L 260 1 L 257 0 Z M 26 278 L 28 277 L 30 278 L 41 285 L 42 287 L 40 289 L 37 291 L 34 292 L 29 296 L 26 298 L 24 298 L 18 301 L 19 297 L 22 288 L 25 280 Z M 94 260 L 97 260 L 105 262 L 112 262 L 121 260 L 123 262 L 123 269 L 122 273 L 121 276 L 120 278 L 119 280 L 115 284 L 113 285 L 107 285 L 105 284 L 103 282 L 103 281 L 100 278 L 96 270 L 93 263 Z M 154 255 L 164 255 L 166 257 L 166 261 L 165 266 L 164 269 L 161 275 L 159 277 L 156 279 L 154 280 L 150 281 L 147 281 L 146 280 L 142 280 L 140 279 L 137 276 L 136 274 L 135 272 L 136 261 L 135 259 L 140 257 L 145 256 Z M 72 219 L 73 221 L 71 224 L 70 228 L 70 237 L 71 241 L 72 243 L 73 245 L 77 250 L 76 252 L 71 257 L 71 258 L 57 275 L 52 279 L 50 278 L 47 276 L 39 270 L 35 267 L 34 264 L 36 261 L 41 255 L 47 249 L 51 243 L 57 237 L 65 226 Z M 166 163 L 176 163 L 180 165 L 183 166 L 185 168 L 187 171 L 188 173 L 188 181 L 187 183 L 185 186 L 183 188 L 175 192 L 170 193 L 164 194 L 158 195 L 150 196 L 141 197 L 138 196 L 143 191 L 148 184 L 157 173 L 162 168 L 162 167 Z M 159 115 L 161 117 L 165 118 L 171 119 L 182 118 L 187 119 L 185 121 L 185 122 L 183 124 L 172 124 L 173 127 L 179 128 L 177 130 L 177 131 L 171 137 L 168 142 L 154 159 L 142 172 L 138 178 L 130 186 L 127 191 L 123 195 L 123 196 L 120 199 L 109 199 L 104 200 L 99 201 L 96 202 L 93 203 L 87 206 L 80 209 L 81 207 L 86 202 L 86 201 L 97 189 L 105 178 L 110 172 L 115 166 L 122 159 L 127 153 L 140 136 L 152 123 L 156 117 Z M 191 109 L 192 108 L 195 109 L 194 111 L 191 114 L 188 115 L 183 116 L 169 116 L 164 115 L 160 113 L 161 111 L 163 109 L 166 109 L 174 111 L 179 111 L 180 110 L 186 110 Z M 160 88 L 161 87 L 165 88 L 160 93 L 155 99 L 153 103 L 147 110 L 140 117 L 126 134 L 121 141 L 107 158 L 100 165 L 95 171 L 72 200 L 67 206 L 61 212 L 57 218 L 52 224 L 47 229 L 45 230 L 43 231 L 39 232 L 34 232 L 30 231 L 28 229 L 27 227 L 27 225 L 28 222 L 31 215 L 35 208 L 37 201 L 40 197 L 40 194 L 42 189 L 44 184 L 49 174 L 52 164 L 56 157 L 58 150 L 62 141 L 64 137 L 67 131 L 76 122 L 83 118 L 90 116 L 97 112 L 105 110 L 123 103 L 130 100 L 137 96 L 142 95 L 149 91 L 156 88 Z M 209 64 L 214 64 L 217 67 L 218 70 L 218 72 L 217 75 L 216 77 L 213 81 L 209 85 L 209 87 L 212 89 L 210 91 L 210 92 L 206 97 L 201 102 L 199 103 L 194 105 L 191 106 L 187 107 L 182 108 L 171 108 L 166 105 L 169 102 L 178 100 L 176 100 L 175 99 L 172 98 L 176 94 L 186 93 L 189 92 L 192 91 L 194 90 L 196 89 L 199 87 L 203 84 L 208 79 L 211 75 L 210 70 L 210 71 L 208 74 L 198 84 L 195 86 L 189 89 L 186 90 L 183 91 L 179 90 L 180 88 L 183 85 L 185 84 L 189 83 L 193 81 L 196 79 L 203 72 L 205 67 L 207 65 Z M 208 56 L 215 56 L 217 57 L 219 58 L 224 63 L 225 66 L 225 73 L 222 77 L 219 80 L 218 78 L 220 75 L 220 73 L 221 71 L 220 67 L 219 65 L 216 62 L 214 61 L 208 61 L 206 62 L 203 65 L 200 71 L 194 77 L 189 78 L 192 75 L 192 74 L 196 69 L 202 62 Z M 214 48 L 216 48 L 219 49 L 221 50 L 223 51 L 230 58 L 232 61 L 232 65 L 229 68 L 228 66 L 227 65 L 227 63 L 226 61 L 220 55 L 218 54 L 215 53 L 211 51 Z M 220 41 L 223 42 L 225 43 L 227 44 L 230 46 L 236 52 L 238 55 L 239 57 L 235 61 L 233 57 L 231 54 L 227 50 L 224 48 L 222 47 L 216 45 Z M 231 28 L 233 29 L 236 31 L 239 33 L 249 44 L 248 46 L 246 48 L 245 46 L 243 44 L 241 44 L 241 46 L 243 48 L 244 51 L 241 54 L 239 52 L 231 43 L 228 41 L 224 40 L 222 38 L 225 35 L 227 35 L 229 36 L 231 37 L 236 41 L 239 40 L 236 37 L 233 35 L 227 32 Z M 249 11 L 251 11 L 252 12 L 255 12 L 258 14 L 262 18 L 262 21 L 263 22 L 263 24 L 262 25 L 262 28 L 261 30 L 257 35 L 253 40 L 251 41 L 247 37 L 247 36 L 244 33 L 240 30 L 237 29 L 235 27 L 234 27 L 233 25 L 237 20 L 244 13 L 246 12 Z" fill="#142c41" fill-rule="evenodd"/>
</svg>